<svg xmlns="http://www.w3.org/2000/svg" viewBox="0 11.25 138.6999969482422 47.54999923706055" data-asc="0.995"><g fill="#ebed9e"><g fill="#ebed9e" transform="translate(0, 0)"><path d="M9.25 42.20L6.70 41.35L23.05 21.25L33 21.25L8.35 49.75L0 49.75L0 11.25L9.25 11.25L9.25 42.20M14.95 35.80L21.85 30.75L33.75 49.75L23.20 49.75L14.95 35.80ZM45.15 58.80Q42.15 58.80 39.83 58.05Q37.50 57.30 35.30 55.80L35.30 49.25Q37.55 50.70 39.53 51.33Q41.50 51.95 43.85 51.95Q45.95 51.95 47.53 51.05Q49.10 50.15 50.15 47.75L61.55 21.25L71.40 21.25L57.45 50.65Q56.05 53.65 54.10 55.45Q52.15 57.25 49.88 58.02Q47.60 58.80 45.15 58.80M46.25 47.50L33.90 21.25L44.10 21.25L55.20 47.50L46.25 47.50ZM71.75 28.15L71.75 24.10L77.65 21.95L81.65 13.65L86.95 13.65L86.95 21.25L99.25 21.25L99.25 28.15L86.95 28.15L86.95 37.55Q86.95 40.75 88.25 42.02Q89.55 43.30 92.90 43.30Q95.05 43.30 96.67 42.92Q98.30 42.55 99.75 41.90L99.75 48.95Q98.25 49.55 95.83 50.05Q93.40 50.55 90.80 50.55Q86.25 50.55 83.33 49.10Q80.40 47.65 79.03 45.02Q77.65 42.40 77.65 38.85L77.65 28.15L71.75 28.15ZM120.65 50.55Q115.25 50.55 111.20 48.65Q107.15 46.75 104.90 43.35Q102.65 39.95 102.65 35.50Q102.65 31 104.90 27.63Q107.15 24.25 111.22 22.35Q115.30 20.45 120.65 20.45Q126.05 20.45 130.13 22.35Q134.20 24.25 136.45 27.63Q138.70 31 138.70 35.50Q138.70 40 136.45 43.38Q134.20 46.75 130.13 48.65Q126.05 50.55 120.65 50.55M120.65 43.55Q123.40 43.55 125.33 42.58Q127.25 41.60 128.28 39.80Q129.30 38 129.30 35.50Q129.30 33 128.28 31.20Q127.25 29.40 125.33 28.42Q123.40 27.45 120.65 27.45Q118 27.45 116.05 28.42Q114.10 29.40 113.05 31.20Q112 33 112 35.50Q112 38 113.05 39.80Q114.10 41.60 116.05 42.58Q118 43.55 120.65 43.55Z"/></g></g></svg>